# xmcd
#
# Track frame offsets:
#	150
#	15536
#	29875
#	43414
#	61494
#	85221
#	109440
#	135977
#	156772
#	174444
#	186855
#	205380
#	226568
#	235575
#	255398
#	269061
#	304072
#
# Disc length: 4324 seconds
# Revision: 3
# Processed by: cddbd v1.5.2PL0 Copyright (c) Steve Scherf et al.
# Submitted via: dBpowerAMP V12.0
#
DISCID=e910e211
DTITLE=Various Artist - Blues Mieszka W Polsce
DYEAR=1
DGENRE=Rock
TTITLE0=Antologia Polskiego Bluesa - Pawkin - Blues Mieszka W Polsce
TTITLE1=Blues Mieszka W Polsce - Breakout - Kiedy Byłem Małym Chłopcem
TTITLE2=Blues Mieszka W Polsce - Kasa Chorych - Boogie Dziadka Skiby
TTITLE3=Blues Mieszka W Polsce - Martyna Jakubowicz - Blues o Zużytych Butach i Szczęśliwym Końcu Drogi
TTITLE4=Blues Mieszka W Polsce - Irek Dudek - Flute Tune
TTITLE5=Blues Mieszka W Polsce - Jan Skrzek - To Był Chłop
TTITLE6=Blues Mieszka W Polsce - Leszek Winder - Blues o Śmieci
TTITLE7=Blues Mieszka W Polsce - Elżbieta Mielczarek - Poczekalnia PKP
TTITLE8=Blues Mieszka W Polsce - Nocna Zmiana Bluesa and Ryszard Ridel - Hotelowy Blues
TTITLE9=Blues Mieszka W Polsce - Roman "Pazur" Wojciechowski - Jak Psu Kość
TTITLE10=Blues Mieszka W Polsce - Blues Flowers - Nie Bedę Grzecznym Chłopcem
TTITLE11=Blues Mieszka W Polsce - After Blues - Mój Raj
TTITLE12=Blues Mieszka W Polsce -  Sławek Wierzcholski and Dżem - Wodnik - rozrywkowy bar
TTITLE13=Blues Mieszka W Polsce -  Kłusem Z Blusem - Boogie Dla Króliczka
TTITLE14=Blues Mieszka W Polsce -  Adam Kulisz - Jaromkowy Blues
TTITLE15=Blues Mieszka W Polsce - Jąkpa Blues Band - Blues 40 Ulicy
TTITLE16=Blues Mieszka W Polsce -  Tadeusz Nalepa - To Mój Blues
EXTD=
EXTT0=
EXTT1=
EXTT2=
EXTT3=
EXTT4=
EXTT5=
EXTT6=
EXTT7=
EXTT8=
EXTT9=
EXTT10=
EXTT11=
EXTT12=
EXTT13=
EXTT14=
EXTT15=
EXTT16=
PLAYORDER=
